<?xml version="1.0" encoding="utf-8"?>
<!-- Generated by IcoMoon.io -->
<!DOCTYPE svg PUBLIC "-//W3C//DTD SVG 1.1//EN" "http://www.w3.org/Graphics/SVG/1.1/DTD/svg11.dtd">
<svg version="1.1" xmlns="http://www.w3.org/2000/svg" xmlns:xlink="http://www.w3.org/1999/xlink" width="256" height="256" viewBox="0 0 256 256">
<path d="M160 36.647v33.989c9.052 3.951 17.375 9.602 24.569 16.795 15.111 15.11 23.431 35.2 23.431 56.569s-8.322 41.459-23.431 56.569c-15.11 15.11-35.2 23.431-56.569 23.431s-41.459-8.322-56.569-23.431c-15.11-15.11-23.431-35.2-23.431-56.569s8.322-41.459 23.431-56.569c7.194-7.194 15.517-12.844 24.569-16.796v-33.989c-46.262 13.77-80 56.618-80 107.353 0 61.856 50.144 112 112 112s112-50.144 112-112c0-50.735-33.738-93.583-80-107.353zM112 0h32v128h-32z"></path>
</svg>
